<svg xmlns="http://www.w3.org/2000/svg" id="Layer_1" data-name="Layer 1" viewBox="109.02 413.87 861.96 252.26">
  <defs>
    <style>
      .cls-1 {
        fill: #fff;
      }

      .cls-2 {
        fill: #eb7c24;
      }

      .cls-3 {
        fill: #eecba4;
      }
    </style>
  </defs>
  <rect class="cls-2" x="109.02" y="413.87" width="861.96" height="252.26" rx="126.13" ry="126.13"/>
  <polygon class="cls-1" points="827.67 585.12 817.44 575.56 852.02 538.57 817.2 502.84 827.23 493.07 871.38 538.37 827.67 585.12"/>
  <g>
    <path class="cls-1" d="m265.67,580l-15.6-27.1h-8.48v27.1h-11.11v-67.75h23.39c5.2,0,9.6.91,13.21,2.73,3.61,1.82,6.3,4.26,8.09,7.31,1.79,3.06,2.68,6.47,2.68,10.24,0,4.42-1.28,8.43-3.85,12.04-2.57,3.61-6.52,6.06-11.84,7.36l16.77,28.07h-13.26Zm-24.08-35.97h12.28c4.16,0,7.29-1.04,9.41-3.12,2.11-2.08,3.17-4.87,3.17-8.38s-1.04-6.25-3.12-8.24c-2.08-1.98-5.23-2.97-9.46-2.97h-12.28v22.71Z"/>
    <path class="cls-1" d="m340.92,557.29h-41.04c.32,4.29,1.92,7.73,4.78,10.33,2.86,2.6,6.37,3.9,10.53,3.9,5.98,0,10.2-2.5,12.67-7.51h11.99c-1.63,4.94-4.57,8.98-8.82,12.14-4.26,3.15-9.54,4.73-15.84,4.73-5.13,0-9.73-1.15-13.79-3.46-4.06-2.31-7.25-5.56-9.55-9.75-2.31-4.19-3.46-9.05-3.46-14.57s1.12-10.38,3.36-14.57c2.24-4.19,5.39-7.42,9.46-9.7,4.06-2.27,8.72-3.41,13.99-3.41s9.58,1.11,13.55,3.31c3.96,2.21,7.05,5.31,9.26,9.31,2.21,4,3.31,8.59,3.31,13.79,0,2.01-.13,3.83-.39,5.46Zm-11.21-8.97c-.07-4.09-1.53-7.37-4.39-9.85-2.86-2.47-6.4-3.7-10.62-3.7-3.84,0-7.12,1.22-9.85,3.66-2.73,2.44-4.35,5.74-4.87,9.89h29.73Z"/>
    <path class="cls-1" d="m351.89,538.58c2.24-4.16,5.3-7.39,9.16-9.7,3.87-2.31,8.17-3.46,12.92-3.46,4.16,0,7.85.85,11.06,2.53,3.22,1.69,5.7,3.74,7.46,6.14v-7.8h11.21v79.25h-11.21v-33.34c-1.75,2.4-4.29,4.45-7.6,6.14-3.31,1.69-7.08,2.53-11.31,2.53-4.62,0-8.82-1.19-12.62-3.56-3.8-2.37-6.82-5.69-9.06-9.94-2.24-4.26-3.36-9.08-3.36-14.48s1.12-10.17,3.36-14.33Zm38.31,4.87c-1.53-2.73-3.53-4.81-6-6.24-2.47-1.43-5.13-2.14-7.99-2.14s-5.52.7-7.99,2.1c-2.47,1.4-4.47,3.45-6,6.14-1.53,2.7-2.29,5.9-2.29,9.6s.76,6.95,2.29,9.75c1.53,2.79,3.54,4.92,6.04,6.38,2.5,1.46,5.15,2.19,7.94,2.19s5.52-.71,7.99-2.14c2.47-1.43,4.47-3.52,6-6.29,1.53-2.76,2.29-5.99,2.29-9.7s-.76-6.92-2.29-9.65Z"/>
    <path class="cls-1" d="m466.96,526.29v53.71h-11.11v-6.34c-1.75,2.21-4.04,3.95-6.87,5.21-2.83,1.27-5.83,1.9-9.02,1.9-4.22,0-8.01-.88-11.36-2.63-3.35-1.75-5.98-4.35-7.9-7.8-1.92-3.44-2.88-7.6-2.88-12.48v-31.58h11.01v29.93c0,4.81,1.2,8.5,3.61,11.06,2.4,2.57,5.69,3.85,9.85,3.85s7.46-1.28,9.89-3.85c2.44-2.57,3.66-6.25,3.66-11.06v-29.93h11.11Z"/>
    <path class="cls-1" d="m530.41,557.29h-41.04c.32,4.29,1.92,7.73,4.78,10.33,2.86,2.6,6.37,3.9,10.53,3.9,5.98,0,10.2-2.5,12.67-7.51h11.99c-1.63,4.94-4.57,8.98-8.82,12.14-4.26,3.15-9.54,4.73-15.84,4.73-5.13,0-9.73-1.15-13.79-3.46-4.06-2.31-7.25-5.56-9.55-9.75-2.31-4.19-3.46-9.05-3.46-14.57s1.12-10.38,3.36-14.57c2.24-4.19,5.39-7.42,9.46-9.7,4.06-2.27,8.72-3.41,13.99-3.41s9.58,1.11,13.55,3.31c3.96,2.21,7.05,5.31,9.26,9.31,2.21,4,3.31,8.59,3.31,13.79,0,2.01-.13,3.83-.39,5.46Zm-11.21-8.97c-.07-4.09-1.53-7.37-4.39-9.85-2.86-2.47-6.4-3.7-10.62-3.7-3.84,0-7.12,1.22-9.85,3.66-2.73,2.44-4.35,5.74-4.87,9.89h29.73Z"/>
    <path class="cls-1" d="m549.86,578.59c-3.35-1.53-6-3.61-7.94-6.24-1.95-2.63-2.99-5.57-3.12-8.82h11.5c.19,2.28,1.28,4.18,3.27,5.7,1.98,1.53,4.47,2.29,7.46,2.29s5.54-.6,7.26-1.8c1.72-1.2,2.58-2.74,2.58-4.63,0-2.01-.96-3.51-2.88-4.48-1.92-.97-4.96-2.05-9.11-3.22-4.03-1.1-7.31-2.18-9.84-3.22-2.53-1.04-4.73-2.63-6.58-4.78s-2.78-4.97-2.78-8.48c0-2.86.84-5.47,2.53-7.85,1.69-2.37,4.11-4.24,7.26-5.6,3.15-1.36,6.77-2.05,10.87-2.05,6.11,0,11.03,1.54,14.77,4.63,3.74,3.09,5.73,7.3,5.99,12.62h-11.11c-.19-2.4-1.17-4.32-2.92-5.75-1.75-1.43-4.13-2.14-7.12-2.14s-5.17.55-6.73,1.66c-1.56,1.11-2.34,2.57-2.34,4.39,0,1.43.52,2.63,1.56,3.61,1.04.97,2.31,1.74,3.8,2.29,1.49.55,3.7,1.25,6.63,2.1,3.9,1.04,7.1,2.1,9.6,3.17,2.5,1.07,4.66,2.65,6.48,4.73,1.82,2.08,2.76,4.84,2.83,8.29,0,3.06-.85,5.78-2.53,8.19-1.69,2.4-4.08,4.29-7.16,5.65-3.09,1.36-6.71,2.05-10.87,2.05s-8.01-.76-11.36-2.29Z"/>
    <path class="cls-1" d="m606.74,535.36v29.73c0,2.02.47,3.46,1.41,4.34.94.88,2.55,1.32,4.83,1.32h6.82v9.26h-8.77c-5,0-8.84-1.17-11.5-3.51-2.67-2.34-4-6.14-4-11.4v-29.73h-6.34v-9.07h6.34v-13.35h11.21v13.35h13.06v9.07h-13.06Z"/>
  </g>
  <rect class="cls-3" x="720.09" y="448.26" width="9.53" height="181.45"/>
</svg>