<?xml version="1.0" encoding="UTF-8"?>
<svg id="Layer_1" data-name="Layer 1" xmlns="http://www.w3.org/2000/svg" viewBox="0 0 114.21 95.14">
  <defs>
    <style>
      .cls-1 {
        fill: #a7a9ac;
      }
    </style>
  </defs>
  <path class="cls-1" d="m111.83,28.52H33.31v-4.76h2.47c1.31,0,2.38-1.07,2.38-2.38,0-.81-.4-1.53-1.02-1.96L20.83.78c-.9-1.04-2.68-1.04-3.58,0L.59,19.81c-.61.7-.76,1.7-.38,2.55.39.85,1.23,1.39,2.17,1.39h2.38v69c0,1.31,1.07,2.38,2.38,2.38s2.38-1.07,2.38-2.38v-2.38h19.03v2.38c0,1.31,1.07,2.38,2.38,2.38s2.38-1.07,2.38-2.38v-59.48h14.28v24.23c-2.76.99-4.76,3.6-4.76,6.7,0,3.94,3.2,7.14,7.14,7.14s7.14-3.2,7.14-7.14c0-3.1-1.99-5.71-4.76-6.7v-24.23h19.03v19.47c-2.76.99-4.76,3.6-4.76,6.7,0,3.94,3.2,7.14,7.14,7.14s7.14-3.2,7.14-7.14c0-3.1-1.99-5.71-4.76-6.7v-19.47h14.28v59.48c0,1.31,1.07,2.38,2.38,2.38s2.38-1.07,2.38-2.38v-59.48h9.52v5.26c-1.43.59-2.38,1.68-2.38,3.07s.95,2.47,2.38,3.07v6.95c-1.43.59-2.38,1.68-2.38,3.07s.95,2.47,2.38,3.07v6.95c-1.43.59-2.38,1.68-2.38,3.07s.95,2.47,2.38,3.07v6.95c-1.43.59-2.38,1.68-2.38,3.07s.95,2.47,2.38,3.07v4.07c0,1.31,1.07,2.38,2.38,2.38s2.38-1.07,2.38-2.38v-4.07c1.43-.59,2.38-1.68,2.38-3.07s-.95-2.47-2.38-3.07v-6.95c1.43-.59,2.38-1.68,2.38-3.07s-.95-2.47-2.38-3.07v-6.95c1.43-.59,2.38-1.68,2.38-3.07s-.95-2.47-2.38-3.07v-6.95c1.43-.59,2.38-1.68,2.38-3.07s-.95-2.47-2.38-3.07v-5.26h2.38c1.31,0,2.38-1.07,2.38-2.38s-1.07-2.38-2.38-2.38ZM28.55,85.62H9.52v-9.52h19.03v9.52h0Zm0-14.28H9.52v-9.52h19.03v9.52h0Zm0-14.28H9.52v-9.52h19.03v9.52h0Zm0-14.28H9.52v-19.03h19.03v19.03h0Zm21.41,23.79c-1.31,0-2.38-1.07-2.38-2.38s1.07-2.38,2.38-2.38,2.38,1.07,2.38,2.38-1.07,2.38-2.38,2.38Zm23.79-4.76c-1.31,0-2.38-1.07-2.38-2.38s1.07-2.38,2.38-2.38,2.38,1.07,2.38,2.38-1.07,2.38-2.38,2.38Z"/>
</svg>