<?xml version="1.0" encoding="UTF-8"?>
<svg id="Layer_1" data-name="Layer 1" xmlns="http://www.w3.org/2000/svg" viewBox="0 0 92.62 102.38">
  <defs>
    <style>
      .cls-1 {
        fill: #a7a9ac;
      }
    </style>
  </defs>
  <path class="cls-1" d="m73.26,98c-2.26-4.26-4.44-8.33-6.58-12.43-.45-.86-1.15-.79-1.89-.79-8.15,0-16.3,0-24.44,0-4.05,0-8.09.03-12.14-.02-.98-.01-1.52.3-1.97,1.19-2.07,4.01-4.22,7.98-6.33,11.93.14.12.17.18.22.19,1.97.67,2.57,1.36,2.33,2.64-.22,1.2-1.05,1.66-3.02,1.66-2.34,0-4.69.02-7.03,0-1.47-.02-2.41-.79-2.49-1.95-.08-1.19.95-2.35,2.42-2.17,2.32.29,3.21-.94,4.14-2.74,3.89-7.51,7.91-14.95,11.97-22.57-.59-.38-1.15-.75-1.72-1.11-7.68-4.81-13.08-11.44-15.92-20.08-.44-1.34-1.01-1.99-2.55-1.84-1.85.17-3.72.05-5.59.04C.96,49.93,0,49.17,0,47.88c0-1.28.95-2.09,2.66-2.13,2.12-.05,4.24-.01,6.52-.01-.13-1.35-.18-2.55-.38-3.72-.06-.32-.53-.6-.87-.82-2.56-1.68-3.61-4.3-2.79-7.01.76-2.5,3.1-4.17,5.97-4.17,23.48,0,46.97,0,70.45,0,2.95,0,5.19,1.67,5.98,4.35.75,2.53-.33,5.19-2.74,6.74-.74.48-1.7,3.56-1.22,4.24.18.26.72.36,1.09.37,1.54.04,3.09.01,4.63.02.48,0,.96,0,1.43.09,1.28.25,1.97,1.07,1.88,2.18-.08,1.07-.93,1.89-2.17,1.92-2.18.05-4.37.09-6.55-.01-1.14-.05-1.6.4-1.91,1.4-2.49,7.88-7.19,14.16-13.83,19.03-.9.66-1.84,1.27-2.81,1.82-.68.38-.72.78-.38,1.41,4.24,7.93,8.46,15.87,12.73,23.78.22.4.86.67,1.36.8.66.17,1.39.05,2.05.2,1.1.24,1.58,1.04,1.51,2.13-.07,1.03-.68,1.79-1.68,1.82-3.03.08-6.07.08-9.1,0-1.02-.03-1.62-.84-1.72-1.82-.09-.99.43-1.75,1.39-2.09.49-.17,1.03-.23,1.75-.38Zm6.44-56.05h-2.15c-20.76,0-41.52,0-62.28,0-.37,0-.75.03-1.12,0-.78-.06-1.07.3-.97,1.05.24,1.63.34,3.29.75,4.87,4.37,16.94,20.45,27.43,37.03,24.97,13.83-2.05,24.52-11.8,27.82-25.37.42-1.73.59-3.52.92-5.52Zm-33.31-4.23c11.28,0,22.57,0,33.85,0,.58,0,1.17,0,1.75-.05,1.03-.09,1.55-.79,1.55-1.71,0-.91-.51-1.63-1.54-1.72-.63-.06-1.27-.08-1.91-.08-22.51,0-45.03,0-67.54,0-.48,0-.96,0-1.44.02-1.15.05-1.97.53-2.04,1.77-.06,1.03.73,1.68,2.03,1.76.48.03.96.01,1.44.01,11.28,0,22.57,0,33.85,0Zm17.55,42.78c-.9-1.7-1.77-3.16-2.46-4.69-.51-1.14-1.08-1.21-2.18-.8-5.3,2-10.79,2.91-16.42,2.12-3.13-.44-6.2-1.34-9.31-1.96-.52-.11-1.42-.09-1.61.21-1,1.6-1.82,3.3-2.79,5.13h34.76Z"/>
  <path class="cls-1" d="m29.34,25.68c-.02-1.67,1.06-2.95,2.41-4.07.78-.64,1.64-1.18,2.43-1.81,1.36-1.1,1.36-2.02.01-3.11-.99-.8-2.08-1.49-3.01-2.35-2.62-2.44-2.6-5.97.02-8.43.66-.62,1.38-1.16,2.13-1.67.99-.68,1.81-1.39,2.05-2.69.21-1.16,1.1-1.7,2.26-1.51,1.16.18,1.73.99,1.73,2.15,0,1.52-.57,2.82-1.68,3.82-1.03.92-2.18,1.7-3.24,2.58-1.36,1.12-1.36,2,0,3.11,1.03.84,2.17,1.56,3.13,2.46,2.48,2.34,2.46,5.84,0,8.19-.61.59-1.3,1.1-1.98,1.6-1.08.78-2.11,1.49-2.35,3.03-.16,1.01-1.11,1.53-2.2,1.4-1.2-.15-1.75-1-1.69-2.69Z"/>
  <path class="cls-1" d="m53.46,2.46c-.61,1.14-1.08,2.38-1.87,3.38-.71.89-1.75,1.53-2.69,2.22-2.26,1.69-2.26,2.51.06,4.21.73.53,1.48,1.04,2.14,1.65,2.83,2.61,2.8,6.14-.08,8.74-.55.5-1.15.95-1.76,1.36-1.08.73-1.98,1.49-2.24,2.92-.19,1.05-1.11,1.57-2.18,1.42-1.14-.16-1.76-.91-1.77-2.1-.02-1.52.5-2.84,1.61-3.85.94-.86,1.98-1.6,2.99-2.37,1.73-1.33,1.72-2.29-.05-3.63-.97-.74-2-1.42-2.87-2.27-2.31-2.25-2.32-5.72-.04-7.98.79-.78,1.8-1.33,2.58-2.12.71-.72,1.41-1.56,1.8-2.47.47-1.09,1.11-1.66,2.27-1.56,1.09.1,1.76,1,2.1,2.44Z"/>
  <path class="cls-1" d="m66.92,18.44c.01,2.06-1.18,3.57-2.8,4.8-1.47,1.11-3.12,1.96-3.55,4.07-.1.47-1.33.97-2.05.98-.97.02-1.6-.77-1.68-1.8-.11-1.51.4-2.85,1.46-3.91.83-.82,1.76-1.53,2.7-2.22,2.29-1.68,2.31-2.54.06-4.2-.9-.66-1.81-1.32-2.6-2.1-2.23-2.22-2.23-5.62-.02-7.85.63-.64,1.35-1.2,2.08-1.72,1.13-.81,2.2-1.59,2.48-3.14.18-1,1.06-1.45,2.07-1.34,1.09.12,1.73.79,1.82,1.88.13,1.52-.39,2.86-1.46,3.9-.91.88-1.95,1.64-2.96,2.41-1.93,1.48-1.95,2.37-.04,3.82.97.74,1.97,1.45,2.86,2.28,1.14,1.06,1.66,2.44,1.63,4.13Z"/>
  <path class="cls-1" d="m48.2,69.84c-.53,0-1.06.01-1.59,0-1.47-.05-2.21-.68-2.26-1.91-.06-1.3.72-1.97,2.18-2.2,2.77-.42,5.6-.7,8.26-1.51,5.42-1.66,9.6-5.11,12.85-9.73.27-.39.53-.8.85-1.15.75-.8,1.67-.96,2.59-.38,1.01.62,1.18,1.58.75,2.65-.1.24-.25.47-.39.69-5.57,8.24-13.34,12.68-23.22,13.54Z"/>
  <path class="cls-1" d="m73.23,49.37c-1.13,0-2.01-.85-2.04-1.96-.02-1.19.9-2.08,2.1-2.05,1.14.03,1.97.9,1.95,2.04-.02,1.13-.88,1.97-2.02,1.97Z"/>
</svg>