<?xml version="1.0" encoding="UTF-8"?>
<svg id="Layer_1" data-name="Layer 1" xmlns="http://www.w3.org/2000/svg" viewBox="0 0 99.82 99.81">
  <defs>
    <style>
      .cls-1 {
        fill: #a7a9ac;
      }
    </style>
  </defs>
  <path class="cls-1" d="m98.19,90.15h-1.77c-.65-3.2-3.2-5.71-6.42-6.31-.3-1.59-1.08-3.05-2.26-4.21-1.53-1.51-3.55-2.34-5.71-2.32-1.72,0-3.39.58-4.76,1.59-.51-.39-1.05-.71-1.62-.97v-7.7c1.01.35,2.06.52,3.11.52,2.99,0,5.93-1.37,7.82-3.96,1.94-2.67,2.38-6.11,1.23-9.12,1.62-1.19,2.83-2.85,3.45-4.8.8-2.46.59-5.07-.58-7.38-.44-.86-1.01-1.64-1.68-2.33.96-1.8,1.32-3.85,1.02-5.9-.37-2.56-1.7-4.82-3.77-6.36-.89-.66-1.91-1.18-2.96-1.5-1.43-4.65-6.18-7.58-11.06-6.64-3.55.68-6.36,3.23-7.4,6.63-1.02.31-1.99.79-2.85,1.42-.86-.62-1.82-1.11-2.84-1.41-1.43-4.65-6.17-7.58-11.05-6.64-3.55.68-6.36,3.23-7.4,6.63-1.04.3-2.02.78-2.88,1.41-.87-.62-1.82-1.1-2.85-1.41-1.43-4.64-6.17-7.57-11.05-6.63-3.55.68-6.36,3.23-7.4,6.63-4.65,1.4-7.61,6.13-6.7,11.01.18.96.51,1.89.97,2.75-3.26,3.36-3.68,8.69-.77,12.54.54.73,1.2,1.37,1.92,1.92-1.71,4.32-.09,9.37,4.01,11.84,1.54.92,3.26,1.38,4.97,1.38s3.33-.44,4.82-1.31h0v7.9c-1.16.23-2.27.73-3.23,1.47-2.99-2.23-7.24-2.15-10.14.41-1.34,1.19-2.25,2.78-2.59,4.52-3.21.59-5.76,3.11-6.42,6.31h-1.77c-.89,0-1.61.72-1.61,1.61v6.44c0,.88.72,1.61,1.61,1.61h96.58c.89,0,1.61-.73,1.61-1.61v-6.44c0-.89-.72-1.61-1.61-1.61Zm-31.71-57.84c.64-.12,1.15-.63,1.28-1.27.5-2.61,2.5-4.61,5.1-5.11,3.49-.67,6.87,1.62,7.54,5.11.13.64.64,1.15,1.28,1.28.96.17,1.88.58,2.66,1.17,1.38,1.03,2.27,2.53,2.51,4.24.25,1.7-.18,3.4-1.22,4.78-.53.71-.4,1.71.31,2.25.78.59,1.43,1.35,1.87,2.22.78,1.54.92,3.28.4,4.92-.53,1.64-1.67,2.96-3.2,3.75-.39.2-.68.56-.81.99-.12.42-.06.87.16,1.26,1.28,2.2,1.13,4.96-.37,7.03-1.93,2.65-5.53,3.39-8.33,1.83v-19.38l7.58-7.58-2.28-2.27-5.29,5.29v-7.38h-3.22v18.66l-4.86-4.86c-.17-2.27-1.13-4.41-2.71-6.04.96-1.8,1.33-3.84,1.03-5.89-.22-1.5-.77-2.9-1.61-4.12.67-.41,1.41-.69,2.19-.85Zm5.54,34.66c-3.02,1.46-6.64.34-8.33-2.49.82-2.18.82-4.6-.02-6.8,1.55-1.13,2.71-2.69,3.35-4.47l5.41,5.41v8.12c-.14.08-.28.16-.41.22Zm.41,3.31v6.99c-1.09,0-2.18.23-3.22.69-2.67-1.2-5.76-.81-8.06.95-2.83-2.11-6.77-2.15-9.65.02v-8.68c1.02.35,2.07.52,3.12.52,2.71,0,5.39-1.13,7.27-3.28,1.85,2.15,4.55,3.35,7.33,3.35,1.07,0,2.15-.18,3.2-.55Zm-34.26-35.29c.98-1.42,2.45-2.37,4.14-2.67.65-.12,1.17-.63,1.29-1.28.51-2.61,2.5-4.61,5.11-5.11.41-.07.82-.12,1.22-.12,3.03,0,5.73,2.15,6.33,5.23.12.64.63,1.15,1.28,1.28.96.17,1.88.58,2.66,1.17,1.37,1.03,2.27,2.53,2.51,4.24.24,1.7-.19,3.4-1.22,4.78-.53.71-.39,1.72.32,2.26,1.61,1.21,2.58,3.13,2.58,5.15,0,2.43-1.35,4.62-3.52,5.73-.4.2-.69.55-.81.98-.13.43-.07.88.15,1.27,1.28,2.2,1.14,4.96-.37,7.03-1.93,2.65-5.53,3.39-8.33,1.83v-19.38l7.58-7.58-2.27-2.27-5.3,5.29v-7.38h-3.21v18.66l-5.3-5.3-2.27,2.28,7.58,7.58v8.12c-2.02,1.17-4.5,1.17-6.54-.05-3.05-1.83-4.03-5.79-2.21-8.84.23-.38.29-.84.17-1.26-.12-.43-.41-.79-.81-.99-.85-.43-1.59-1.08-2.17-1.83-2.14-2.84-1.57-6.89,1.26-9.02.71-.53.85-1.54.32-2.25-.59-.79-.99-1.72-1.18-2.7-.3-1.69.06-3.4,1.04-4.82Zm-2.13,29.62c-.1.16-.2.3-.31.44-1.61,2.15-4.31,2.99-6.76,2.36v-8.78l4.31-4.32c.25.49.53.96.87,1.4.54.73,1.2,1.37,1.92,1.92-.9,2.29-.87,4.78-.04,6.99Zm-5.47,6.22c2.7,0,5.37-1.12,7.26-3.26.64.73,1.4,1.36,2.27,1.89,1.55.92,3.26,1.38,4.97,1.38,1.1,0,2.18-.19,3.22-.56v8.64c-1.4-1.05-3.09-1.62-4.88-1.6-1.73,0-3.4.58-4.77,1.59-2.29-1.76-5.39-2.15-8.07-.95-.52-.24-1.06-.41-1.6-.52v-6.73c.53.08,1.07.13,1.6.13Zm-5.79-4.51c-2.1,1.58-4.92,1.73-7.17.38-3.05-1.83-4.04-5.79-2.22-8.84.23-.38.29-.84.17-1.26-.12-.43-.41-.79-.81-.99-.85-.43-1.6-1.08-2.17-1.83-2.15-2.84-1.57-6.89,1.26-9.02.7-.53.85-1.54.31-2.25-.59-.78-.99-1.71-1.17-2.68-.65-3.49,1.66-6.86,5.16-7.5.64-.13,1.16-.64,1.28-1.28.51-2.61,2.5-4.61,5.11-5.11,3.48-.67,6.87,1.62,7.54,5.11.12.64.63,1.15,1.28,1.27.77.16,1.51.43,2.17.84h0c-1.47,2.13-2.03,4.7-1.57,7.24.18.97.51,1.91.97,2.78-2,2.06-2.93,4.87-2.68,7.61l-3.28,3.29v-18.66h-3.22v7.38l-6.91-6.91-2.27,2.27,9.19,9.19v18.65c-.34,0-.68.11-.97.32Zm-13.52,20.61c.88,0,1.6-.72,1.6-1.6,0-1.37.61-2.68,1.64-3.59,2-1.76,5.06-1.57,6.81.43.31.35.76.55,1.22.54.46,0,.9-.21,1.21-.56,1.5-1.75,4.02-2.17,6-.99.51.29,1.14.29,1.64,0,1.99-1.18,4.51-.76,6.01.99.3.35.75.56,1.21.56h.02c.46,0,.9-.2,1.21-.54.9-1.03,2.22-1.63,3.59-1.64h.03c1.28,0,2.49.5,3.4,1.39.91.91,1.43,2.12,1.44,3.41,0,.88.72,1.6,1.6,1.6s1.61-.72,1.61-1.6c0-1.37.61-2.68,1.64-3.59,2-1.76,5.06-1.57,6.81.43.31.35.75.55,1.22.54.46,0,.9-.21,1.21-.56,1.5-1.75,4.02-2.17,6-.99.51.29,1.14.29,1.64,0,1.99-1.18,4.51-.76,6.01.99.3.35.75.56,1.21.56h.02c.46,0,.89-.2,1.21-.54.9-1.03,2.22-1.63,3.59-1.64h.03c1.28,0,2.49.5,3.4,1.39.91.91,1.43,2.12,1.44,3.41,0,.88.72,1.6,1.6,1.6,2.1,0,3.89,1.34,4.56,3.22H6.71c.66-1.88,2.46-3.22,4.56-3.22Zm85.32,9.66H3.21v-3.22h93.38v3.22Z"/>
  <path class="cls-1" d="m97.94,8.34c-1.22-1.22-2.83-1.9-4.55-1.9-.31,0-.61.02-.91.06-1.45-2.49-4.47-3.77-7.36-2.93-1.61.47-2.94,1.53-3.76,2.93-.35-.05-.7-.06-1.04-.06-.75-3.67-4.01-6.45-7.89-6.45s-7.14,2.77-7.89,6.45h-.13c-.3,0-.61.02-.91.06-1.45-2.49-4.47-3.77-7.36-2.93-1.61.47-2.94,1.53-3.76,2.93-2.85-.4-5.73,1.17-6.86,3.96-.64,1.59-.64,3.34.04,4.93.67,1.58,1.92,2.82,3.51,3.46.77.31,1.58.47,2.41.47h12.91c2.5,0,4.68-1.44,5.75-3.53.73.21,1.48.32,2.24.32s1.57-.12,2.34-.35c.7,1.4,1.87,2.49,3.33,3.08.77.31,1.58.47,2.41.47h12.91c3.55,0,6.44-2.87,6.45-6.42,0-1.72-.66-3.34-1.88-4.56Zm-33.54,7.76h-12.9c-.41,0-.83-.08-1.22-.24-.79-.32-1.42-.94-1.75-1.73-.33-.79-.34-1.67-.02-2.47.51-1.24,1.71-2.01,2.98-2.01.41,0,.81.07,1.21.24.42.17.9.16,1.31-.05.41-.19.72-.56.85-.99.31-1.06,1.12-1.88,2.19-2.19,1.7-.5,3.49.49,3.99,2.19.13.43.43.8.85.99.41.2.88.21,1.31.05.39-.16.79-.24,1.21-.24h0c1.78,0,3.21,1.45,3.21,3.23,0,1.77-1.45,3.21-3.22,3.21Zm10.11-5.64c-.29.69-.44,1.41-.47,2.14-1.03.38-2.16.39-3.2.04-.06-1.62-.72-3.14-1.87-4.29-.4-.4-.83-.74-1.31-1.01.36-2.32,2.37-4.11,4.78-4.11s4.43,1.79,4.78,4.11c-1.19.7-2.15,1.77-2.71,3.13Zm18.87,5.64h-12.9c-.41,0-.83-.08-1.22-.24-.79-.32-1.42-.94-1.75-1.73-.34-.79-.34-1.67-.02-2.47.51-1.24,1.71-2.01,2.98-2.01.41,0,.81.07,1.21.24.42.17.9.16,1.31-.05.41-.19.72-.56.85-.99.3-1.06,1.12-1.88,2.19-2.19,1.7-.5,3.49.49,3.99,2.19.13.43.43.8.85.99.41.2.88.21,1.31.05.39-.16.79-.24,1.21-.24h0c1.78,0,3.21,1.45,3.21,3.23,0,1.77-1.45,3.21-3.22,3.21Z"/>
</svg>