<?xml version="1.0" encoding="UTF-8"?>
<svg id="Layer_1" data-name="Layer 1" xmlns="http://www.w3.org/2000/svg" viewBox="0 0 122.04 113.87">
  <defs>
    <style>
      .cls-1 {
        fill: #a7a9ac;
      }
    </style>
  </defs>
  <polygon class="cls-1" points="92.9 49.98 55.93 49.98 55.93 53.31 90.51 53.31 105.38 97.52 20.25 97.52 35.09 53.31 37.49 53.31 37.49 49.98 32.69 49.98 16.83 97.25 16.83 100.86 108.81 100.86 108.81 97.25 92.9 49.98"/>
  <path class="cls-1" d="m43.24,32.94c-2.33,0-4.22,1.89-4.22,4.22v17.85h3.33v-17.85c0-.49.4-.88.88-.88s.88.4.88.88v4.25h3.33v-4.25c0-2.33-1.89-4.22-4.22-4.22Z"/>
  <path class="cls-1" d="m55.15,32.94c-2.33,0-4.22,1.89-4.22,4.22v17.85h3.33v-17.85c0-.49.4-.88.88-.88s.88.4.88.88v4.25h3.33v-4.25c0-2.33-1.89-4.22-4.22-4.22Z"/>
  <rect class="cls-1" x="44.15" y="43.09" width="5.11" height="3.33"/>
  <rect class="cls-1" x="44.15" y="49.98" width="5.11" height="3.33"/>
  <polygon class="cls-1" points="98 43.09 55.93 43.09 55.93 46.42 95.62 46.42 113.92 99.51 113.92 105.97 11.72 105.97 11.72 99.51 29.98 46.42 37.49 46.42 37.49 43.09 27.6 43.09 8.47 98.68 8.38 98.95 8.38 109.3 117.25 109.3 117.25 98.95 98 43.09"/>
  <rect class="cls-1" x="37.49" y="60.2" width="16.89" height="3.33"/>
  <rect class="cls-1" x="54.37" y="65.31" width="6.67" height="3.33"/>
  <rect class="cls-1" x="40.82" y="75.3" width="6.67" height="3.33"/>
  <rect class="cls-1" x="47.49" y="85.75" width="28.88" height="3.33"/>
  <rect class="cls-1" x="76.37" y="89.08" width="10.22" height="3.33"/>
  <rect class="cls-1" x="30.38" y="90.86" width="7.11" height="3.33"/>
  <rect class="cls-1" x="28.6" y="82.41" width="6.89" height="3.33"/>
  <rect class="cls-1" x="74.59" y="58.42" width="6.89" height="3.33"/>
  <rect class="cls-1" x="81.48" y="63.53" width="5.11" height="3.33"/>
  <rect class="cls-1" x="81.48" y="71.97" width="5.11" height="3.33"/>
  <rect class="cls-1" x="88.14" y="77.08" width="7.11" height="3.33"/>
  <rect class="cls-1" x="8.38" y="36.42" width="29.11" height="3.33"/>
  <rect class="cls-1" x="61.04" y="36.42" width="56.21" height="3.33"/>
  <rect class="cls-1" x="8.38" y="25.13" width="108.87" height="3.33"/>
  <path class="cls-1" d="m101.78,20.02c-.89-8.5-8.12-15.19-16.88-15.19s-15.98,6.69-16.88,15.19H8.38v3.33h108.87v-3.33h-15.47Zm-30.4,0c.87-6.71,6.6-11.86,13.52-11.86s12.65,5.15,13.52,11.86h-27.04Z"/>
</svg>