<?xml version="1.0" encoding="UTF-8"?> <svg xmlns="http://www.w3.org/2000/svg" id="payment_grey" width="63.828" height="60" viewBox="0 0 63.828 60"> <path id="Path_942" data-name="Path 942" d="M56.972,38.775a1.345,1.345,0,0,1,.782,1.732,29.693,29.693,0,1,1,1.7-14.027l1.656-2.045A1.343,1.343,0,1,1,63.2,26.123l-3.818,4.722a.89.89,0,0,1-.072.074l-.023.022-.015.014a1.494,1.494,0,0,1-.177.147l-.026.016-.005,0a1.187,1.187,0,0,1-.183.1l-.031.013-.031.013a1.524,1.524,0,0,1-.172.053l-.094.018a1.527,1.527,0,0,1-.155.017l-.028,0a.261.261,0,0,1-.038,0,.241.241,0,0,1-.033,0l-.021,0a1.079,1.079,0,0,1-.109-.011l-.015,0A1.121,1.121,0,0,1,58,31.295l-.018,0a.5.5,0,0,1-.058-.018,1.472,1.472,0,0,1-.186-.074.185.185,0,0,1-.036-.02,1.359,1.359,0,0,1-.2-.131s0,0,0,0l-4.721-3.818a1.343,1.343,0,1,1,1.688-2.089l2.36,1.909A26.957,26.957,0,1,0,55.24,39.556,1.343,1.343,0,0,1,56.972,38.775Zm-17-19.725L18.3,40.724a.883.883,0,0,0,1.246,1.246L41.215,20.3a.883.883,0,1,0-1.246-1.246ZM32.016,32.432a5.446,5.446,0,1,1-1.6,3.851A5.447,5.447,0,0,1,32.016,32.432Zm1.241,6.461a3.69,3.69,0,1,0-1.081-2.61A3.691,3.691,0,0,0,33.257,38.892Zm-5.762-10.3a5.446,5.446,0,1,1,1.6-3.851A5.447,5.447,0,0,1,27.494,28.589Zm-3.851-7.542a3.7,3.7,0,1,1-2.608,1.083A3.691,3.691,0,0,1,23.644,21.047Z" fill="#78777a" fill-rule="evenodd"></path> <path id="Path_943" data-name="Path 943" d="M35.81,39.973h.112a3.689,3.689,0,1,0-.112,0ZM54.457,25.136l2.36,1.909q-.026-.236-.056-.471A26.958,26.958,0,1,0,55.24,39.556a1.344,1.344,0,0,1,2.514.951c-.044.115-.088.23-.133.344A29.692,29.692,0,1,1,59.4,26.025q.031.227.058.455l1.656-2.045A1.343,1.343,0,1,1,63.2,26.123l-3.818,4.722a.89.89,0,0,1-.072.074l-.01.009-.014.013-.015.014a1.494,1.494,0,0,1-.177.147l-.026.016-.005,0a1.187,1.187,0,0,1-.183.1l-.031.013-.031.013a1.524,1.524,0,0,1-.172.053l-.094.018a1.527,1.527,0,0,1-.155.017l-.028,0a.261.261,0,0,1-.038,0,.241.241,0,0,1-.033,0l-.021,0a1.079,1.079,0,0,1-.109-.011l-.015,0A1.121,1.121,0,0,1,58,31.295l-.018,0a.5.5,0,0,1-.058-.018,1.472,1.472,0,0,1-.186-.074.185.185,0,0,1-.036-.02,1.359,1.359,0,0,1-.2-.131s0,0,0,0l-4.721-3.818a1.343,1.343,0,1,1,1.688-2.089Zm-2.146-.008a1.674,1.674,0,0,1,2.354-.249l1.721,1.392A26.629,26.629,0,1,0,54.93,39.439a1.675,1.675,0,0,1,3.238.7l.082-.007-.186.492A30.023,30.023,0,1,1,59.68,25.673l1.171-1.446a1.674,1.674,0,1,1,2.6,2.105l-3.821,4.725a1.136,1.136,0,0,1-.1.1l0,0-.018.017-.025.023a1.814,1.814,0,0,1-.209.172l-.018.013-.014.008,0,0,0,0h0a1.509,1.509,0,0,1-.233.127h0m0,0-.035.015-.026.011-.007,0-.007,0a1.853,1.853,0,0,1-.209.065l-.007,0-.008,0c-.031.006-.068.014-.109.02-.062.01-.123.016-.181.02h-.005a.575.575,0,0,1-.088.008.55.55,0,0,1-.08-.006h0c-.048,0-.093-.009-.123-.013l-.017,0h0a1.446,1.446,0,0,1-.2-.036l-.016,0h0c-.016,0-.046-.012-.079-.025A1.78,1.78,0,0,1,57.6,31.5a.5.5,0,0,1-.073-.039,1.69,1.69,0,0,1-.229-.149l-.008-.006-.017-.014-.025-.02h0l-4.687-3.79a1.675,1.675,0,0,1-.25-2.355m5.937,6.539ZM18.053,40.5,39.728,18.824a1.214,1.214,0,1,1,1.714,1.715L19.768,42.213l-.009.007a1.214,1.214,0,0,1-1.713-1.713Zm.242.226a.883.883,0,0,0,1.246,1.246L41.215,20.3a.883.883,0,1,0-1.246-1.246ZM31.781,32.2a5.777,5.777,0,1,1-1.692,4.085A5.778,5.778,0,0,1,31.781,32.2Zm-4.053-3.375a5.777,5.777,0,1,1,1.692-4.085A5.778,5.778,0,0,1,27.728,28.823Zm-4.086-7.776h-.048q-.1,0-.209.009a3.681,3.681,0,1,0,.314-.009h-.056m0,.331a3.361,3.361,0,1,0,2.375.984A3.366,3.366,0,0,0,23.644,21.378Zm9.846,17.28a3.359,3.359,0,1,0-.985-2.376A3.359,3.359,0,0,0,33.491,38.658Zm-13.7-17.771a5.446,5.446,0,1,1-1.6,3.851A5.446,5.446,0,0,1,19.793,20.887Zm16.073,9.949a5.446,5.446,0,1,0,3.851,1.595A5.447,5.447,0,0,0,35.866,30.837Z" fill="#78777a" fill-rule="evenodd"></path> </svg> 