<?xml version="1.0" encoding="UTF-8"?> <svg xmlns="http://www.w3.org/2000/svg" id="price_grey" width="67.395" height="60" viewBox="0 0 67.395 60"> <path id="Path_941" data-name="Path 941" d="M4.931,60H55.888a6.594,6.594,0,0,0,6.575-6.575V45.946a5.751,5.751,0,0,0,4.932-5.671V30.412a5.75,5.75,0,0,0-4.932-5.671V17.262a6.594,6.594,0,0,0-6.575-6.575H49.066L47.669,1.4A1.6,1.6,0,0,0,46.929.25,1.513,1.513,0,0,0,45.614.085l-37.4,10.6H4.932A4.946,4.946,0,0,0,0,15.619v39.45A4.946,4.946,0,0,0,4.932,60ZM64.106,30.412v9.862a2.422,2.422,0,0,1-2.466,2.466H49.312a4.946,4.946,0,0,1-4.931-4.932V32.877a4.946,4.946,0,0,1,4.931-4.932H61.641A2.423,2.423,0,0,1,64.106,30.412ZM44.71,3.7l1.069,6.986H20.218ZM3.287,15.618a1.648,1.648,0,0,1,1.644-1.644H55.888a3.3,3.3,0,0,1,3.287,3.287v7.4H49.312a8.243,8.243,0,0,0-8.219,8.219V37.81a8.243,8.243,0,0,0,8.219,8.219h9.862v7.4a3.3,3.3,0,0,1-3.287,3.287H4.931a1.648,1.648,0,0,1-1.644-1.644Z" fill="#78777a"></path> <circle id="Ellipse_2" data-name="Ellipse 2" cx="2.201" cy="2.201" r="2.201" transform="translate(48.652 33.021)" fill="#78777a"></circle> </svg> 