<!DOCTYPE svg PUBLIC "-//W3C//DTD SVG 1.1//EN" "http://www.w3.org/Graphics/SVG/1.1/DTD/svg11.dtd">
<!-- Uploaded to: SVG Repo, www.svgrepo.com, Transformed by: SVG Repo Mixer Tools -->
<svg fill="#ffffff" height="800px" width="800px" version="1.1" id="Layer_1" xmlns="http://www.w3.org/2000/svg" xmlns:xlink="http://www.w3.org/1999/xlink" viewBox="0 0 511.997 511.997" xml:space="preserve" stroke="#ffffff">
<g id="SVGRepo_bgCarrier" stroke-width="0"/>
<g id="SVGRepo_tracerCarrier" stroke-linecap="round" stroke-linejoin="round"/>
<g id="SVGRepo_iconCarrier"> <g> <g> <path d="M509.979,447.113l-54.234-72.86c-9.755-13.107-25.334-20.931-41.672-20.931h-2.796c-9.923,0-19.386-4.752-25.31-12.712 l-10.606-14.249c-9.755-13.107-25.334-20.931-41.672-20.931c-9.923,0-19.385-4.752-25.315-12.72l-0.675-0.906 c-6.798-9.132-16.747-15.338-27.648-17.538V140.935h9.442c4.359,0,8.237-2.771,9.649-6.896c1.413-4.125,0.047-8.691-3.398-11.363 l-93.358-72.41c-3.679-2.855-8.822-2.855-12.502,0l-93.358,72.411c-3.445,2.671-4.811,7.238-3.398,11.363 c1.413,4.125,5.29,6.896,9.649,6.896h9.442v132.432h-0.001h-59.76C23.532,273.368,0,296.96,0,325.958v127.713 c0,5.632,4.567,10.199,10.199,10.199c5.632,0,10.199-4.567,10.199-10.199v-13.277h43.458v12.338 c0,5.632,4.567,10.199,10.199,10.199c5.632,0,10.199-4.567,10.199-10.199v-138.98c0-5.632-4.567-10.199-10.199-10.199 c-5.632,0-10.199,4.567-10.199,10.199v2.008H22.057c4.259-12.765,16.273-21.992,30.4-21.992h59.761v149.706h-5.294 c-5.632,0-10.199,4.567-10.199,10.199c0,5.632,4.567,10.199,10.199,10.199h30.05c5.632,0,10.199-4.567,10.199-10.199 c0-5.632-4.567-10.199-10.199-10.199h-4.356v-6.834h64.227c5.632,0,10.199-4.567,10.199-10.199 c0-5.632-4.567-10.199-10.199-10.199h-64.228v-24.591h127.036v51.825h-5.295c-5.632,0-10.199,4.567-10.199,10.199 c0,5.632,4.567,10.199,10.199,10.199h30.05c5.632,0,10.199-4.567,10.199-10.199c0-5.632-4.567-10.199-10.199-10.199h-4.356 V295.419c4.417,1.699,8.369,4.648,11.292,8.572l0.675,0.906c9.754,13.107,25.334,20.931,41.672,20.931 c9.923,0,19.385,4.752,25.309,12.712l10.606,14.249c9.754,13.107,25.334,20.931,41.673,20.931h2.796 c9.923,0,19.385,4.752,25.309,12.712l54.234,72.86c2.002,2.69,5.076,4.11,8.189,4.11c2.117,0,4.253-0.658,6.082-2.018 C512.406,458.02,513.342,451.63,509.979,447.113z M63.856,419.995H20.398v-14.347h43.458V419.995z M63.856,385.25H20.398v-14.346 h43.458V385.25z M63.856,336.158v14.347H20.398v-14.347H63.856z M259.652,371.249H132.616v-77.483h127.036V371.249z M132.616,273.368v-23.604h16.695v23.604H132.616z M169.71,273.368v-23.604h16.225v23.604H169.71z M206.334,273.368v-23.604 h15.286v23.604H206.334z M259.652,273.368h-17.634v-23.604h0h17.634V273.368z M259.652,229.366H132.616v-54.913h127.036V229.366z M259.652,154.054H132.616v-13.119h127.036V154.054z M132.568,120.536l63.566-49.304l63.566,49.304H132.568z"/> </g> </g> <g> <g> <path d="M235.601,416.239h-4.08c-5.632,0-10.199,4.567-10.199,10.199c0,5.632,4.567,10.199,10.199,10.199h4.08 c5.632,0,10.199-4.567,10.199-10.199C245.8,420.806,241.233,416.239,235.601,416.239z"/> </g> </g> </g>
</svg>